<?xml version="1.0" encoding="utf-8"?>
<!-- Generator: Adobe Illustrator 18.1.1, SVG Export Plug-In . SVG Version: 6.00 Build 0)  -->
<svg version="1.1" id="Laag_1" xmlns="http://www.w3.org/2000/svg" xmlns:xlink="http://www.w3.org/1999/xlink" x="0px" y="0px"
	 viewBox="0 0 267.8 154.4" enable-background="new 0 0 267.8 154.4" xml:space="preserve">
<g>
	<g>
		<path fill="#8BBB48" d="M267.8,150.4c0,2.2-1.8,4-4,4H4c-2.2,0-4-1.8-4-4V4c0-2.2,1.8-4,4-4h259.8c2.2,0,4,1.8,4,4V150.4z"/>
	</g>
	<text transform="matrix(1 0 0 1 121.6932 75.4818)"><tspan x="0" y="0" fill="#FFFFFF" font-family="'Chalet-NewYorkNineteenSixty'" font-size="34.7137">11</tspan><tspan x="0" y="26" fill="#FFFFFF" font-family="'Chalet-NewYorkNineteenSixty'" font-size="22">ventures </tspan><tspan x="0" y="52" fill="#FFFFFF" font-family="'Chalet-NewYorkNineteenSixty'" font-size="22">co-founded</tspan></text>
	<g>
		<path fill="#FFFFFF" d="M43,122.7l-1.5-0.7c-1-0.5-2.2-0.1-2.7,0.9l0,0l-2.8,6l0,0c-0.5,1,0,2.3,1,2.8l1.5,0.7c1,0.5,2.3,0,2.8-1
			h0l0,0l0,0h0l2.8-5.9l0,0c0,0,0-0.1,0-0.1l0,0l0,0C44.4,124.3,44,123.2,43,122.7z"/>
		<path fill="#FFFFFF" d="M24.2,116.4L24.2,116.4c1.1-0.5,1.5-1.7,1-2.8l-0.7-1.5c-0.5-1.1-1.7-1.5-2.8-1l2.1,4.6l-2.2-4.6l-3.8,1.8
			l0,0c-1.1,0.5-1.5,1.7-1,2.8l0.7,1.5c0.5,1.1,1.7,1.5,2.8,1l0,0L24.2,116.4z"/>
		<path fill="#FFFFFF" d="M28.2,107.8L28.2,107.8c-0.8,0.4-1.3,1.2-1.2,2c0,0.3,0.1,0.6,0.2,0.9l0.7,1.5c0.5,1.1,1.7,1.5,2.8,1
			l0-0.1c0,0,0,0,0,0l0,0l1.6-0.8l0,0c1.1-0.5,1.5-1.7,1-2.8l-0.7-1.5c-0.5-1.1-1.7-1.5-2.8-1l2.1,4.6l-2.2-4.6L28.2,107.8z"/>
		<path fill="#FFFFFF" d="M28.9,124.9l-1.2-1.2c-0.8-0.8-2.2-0.8-3,0l0,0l-1.8,1.7l0,0c-0.8,0.8-0.8,2.2,0,3l1.2,1.2
			c0.8,0.8,2.2,0.8,3,0l0,0l0,0l1.8-1.8l0,0C29.8,127,29.8,125.7,28.9,124.9z"/>
		<path fill="#FFFFFF" d="M45.8,108l-1.2-1.2c-0.8-0.8-2.2-0.8-3,0l0,0l-12.1,12l0,0c-0.8,0.8-0.8,2.2,0,3l1.2,1.2
			c0.8,0.8,2.2,0.8,3,0l0,0l0,0l12.1-12l0,0C46.6,110.2,46.6,108.9,45.8,108z"/>
		<path fill="#FFFFFF" d="M102.1,53.3c0-0.8-0.3-1.7-0.9-2.3c-0.6-0.6-1.4-0.9-2.3-0.9c-1,0.1-24.2,1.5-39.8,17
			c-8.4,8.4-12.7,19.1-14.8,27.2l-18.6,0.3l11.1-10.7h7.3v-0.9c1-0.2,1.7-1,1.7-2.1l0-1.7c0-1-0.7-1.9-1.7-2.1v0.8h-8.5
			c-0.8,0-1.5-0.1-2.1,0.5l-17,16.8c-0.8,0.8-1.1,2-0.6,3.1c0.5,1.1,1.5,2.1,2.7,2.1l28,0.5c0,0,0,0,0,0c1.4,0,2.6-1.3,2.9-2.6
			c1.8-7.7,5.6-18.7,13.8-26.9c5.3-5.3,11.8-8.9,17.7-11.2l10.8,10.8c-2.3,6-5.8,12.4-11.1,17.7c-8.2,8.2-19,12-26.7,13.8
			c-1.3,0.3-2.3,1.5-2.3,2.9l0.2,28c0,1.2,0.7,2.3,1.8,2.7c0.4,0.1,0.7,0.2,1.1,0.2c0.8,0,1.5-0.3,2.1-0.9l17.1-17
			c0.6-0.6,0.9-1.3,0.9-2.1v-7.5H75c-0.2-1-1-2.2-2.1-2.2l-1.7,0.2c-1,0-1.9,1-2.1,2h-1v6.3l-10.7,11.1l0.1-18.6
			c8.2-2.2,19-6.5,27.4-14.8C100.5,77.6,102,54.3,102.1,53.3z M87.4,58.3c3.3-0.9,6.2-1.5,8.3-1.8c-0.3,2.1-0.9,5-1.8,8.3L87.4,58.3
			z"/>
	</g>
	<text transform="matrix(1 0 0 1 17.1859 29.4764)" fill="#FCEB3D" font-family="'Chalet-NewYorkNineteenSixty'" font-size="18">Fact</text>
</g>
</svg>
