<?xml version="1.0" encoding="utf-8"?>
<!-- Generator: Adobe Illustrator 18.1.1, SVG Export Plug-In . SVG Version: 6.00 Build 0)  -->
<svg version="1.1" id="Laag_1" xmlns="http://www.w3.org/2000/svg" xmlns:xlink="http://www.w3.org/1999/xlink" x="0px" y="0px"
	 viewBox="0 0 352.1 140.6" enable-background="new 0 0 352.1 140.6" xml:space="preserve">
<g>
	<g>
		<path fill="#DA2073" d="M352.1,136.6c0,2.2-1.8,4-4,4H4c-2.2,0-4-1.8-4-4V4c0-2.2,1.8-4,4-4h344.1c2.2,0,4,1.8,4,4V136.6z"/>
	</g>
	<text transform="matrix(1 0 0 1 145.1752 65.7869)"><tspan x="0" y="0" fill="#FFFFFF" font-family="'Chalet-NewYorkNineteenSixty'" font-size="33.2791">+30,000</tspan><tspan x="0" y="25" fill="#FFFFFF" font-family="'Chalet-NewYorkNineteenSixty'" font-size="20">people involved </tspan><tspan x="0" y="50" fill="#FFFFFF" font-family="'Chalet-NewYorkNineteenSixty'" font-size="20">through cocreation</tspan></text>
	<path fill="#FFFFFF" d="M123,66c0-1.1-0.5-1-1.6-1H89V48.8c0-0.2,0-0.3-0.1-0.5c0-0.1,0.1-0.3,0.1-0.5v-2.3c0-1.1-0.2-0.7-1.3-0.7
		H21.3c-1.1,0-2.3-0.5-2.3,0.7v2.3c0,0.2,0,0.3,0.1,0.5c0,0.1-0.1,0.3-0.1,0.5v41.3c0,1.1,1.2,2.9,2.3,2.9h2.3H30v9.9
		c0,1.1,1.5,3.1,2.6,3.1h2.3c0.5,0,0.9-0.7,1.3-1c0.4-0.1,0.8-0.1,1.1-0.4L49.1,93h35.4c0.2,0,0.3,0,0.5-0.1c0.1,0,0.3,0.1,0.5,0.1
		h2.3c1.1,0,1.3-1.7,1.3-2.9v-9.3c0-1.1-0.2-0.8-1.3-0.8h-2.3c-1.1,0-2.4-0.3-2.4,0.8V87H47.7c-0.6,0-1.2-0.3-1.6,0.2
		c-0.3,0.1-0.6,0-0.9,0.2L37,95.3V88c0,0,0,0,0,0v-0.1c0-1.1-1-0.9-2.1-0.9H25V51h58v17.2c0,1.1,1.3,2.8,2.4,2.8h2.3c0,0,0,0,0.1,0
		c0,0,0,0,0.1,0H117v36H81.4c-0.6,0-1.2-0.1-1.6,0.4c-0.3,0.1-1,0-1.3,0.3l-8.5,8v-5.2v-2.1v-0.1c0-1.1-0.3-1.2-1.4-1.2H59v-5.2
		c0-1.1-0.6-0.8-1.8-0.8H55c-1.1,0-2-0.3-2,0.8v6.4v2.3c0,0.1,0,0.3,0,0.4c0.2,0.9,1,2.4,2,2.4l0,0.8h2.3H64v9.2
		c0,1.1,1.2,2.8,2.3,2.8h2.3c0.5,0,0.9-0.5,1.3-0.8c0.4-0.1,0.8,0.3,1.1,0L82.8,114h35.4c0.2,0,0.3,0,0.5-0.1c0.1,0,0.3,0.1,0.5,0.1
		h2.3c1.1,0,1.6-2.4,1.6-3.6V69.1c0-0.2,0-0.3-0.1-0.5c0-0.1,0.1-0.3,0.1-0.5V66z"/>
	<text transform="matrix(1 0 0 1 19.2943 30.0686)" fill="#FCEB3D" font-family="'Chalet-NewYorkNineteenSixty'" font-size="18">Impact</text>
</g>
</svg>
