<?xml version="1.0" encoding="utf-8"?>
<!-- Generator: Adobe Illustrator 18.1.1, SVG Export Plug-In . SVG Version: 6.00 Build 0)  -->
<svg version="1.1" id="Laag_1" xmlns="http://www.w3.org/2000/svg" xmlns:xlink="http://www.w3.org/1999/xlink" x="0px" y="0px"
	 viewBox="0 0 305.4 147.7" enable-background="new 0 0 305.4 147.7" xml:space="preserve">
<g>
	<g>
		<path fill="#E09442" d="M305.4,143.7c0,2.2-1.8,4-4,4H4c-2.2,0-4-1.8-4-4V4c0-2.2,1.8-4,4-4h297.4c2.2,0,4,1.8,4,4V143.7z"/>
	</g>
	<text transform="matrix(1 0 0 1 142.85 60.6472)"><tspan x="0" y="0" fill="#FFFFFF" font-family="'Chalet-NewYorkNineteenSixty'" font-size="33.2791">+150 </tspan><tspan x="0" y="22.6" fill="#FFFFFF" font-family="'Chalet-NewYorkNineteenSixty'" font-size="20">entrepreneurs </tspan><tspan x="0" y="45.3" fill="#FFFFFF" font-family="'Chalet-NewYorkNineteenSixty'" font-size="20">&amp; innovators </tspan><tspan x="0" y="67.9" fill="#FFFFFF" font-family="'Chalet-NewYorkNineteenSixty'" font-size="20">activated</tspan></text>
	<text transform="matrix(1 0 0 1 15.8851 28.7942)" fill="#FCEB3D" font-family="'Chalet-NewYorkNineteenSixty'" font-size="18">Fact</text>
	<g>
		<path fill="#FFFFFF" d="M121,83.4L121,83.4c-5-0.7-18.1-2.5-19.2-5.3c-1.2-2.8,6.5-13,9.5-16.8l-0.1,0c0.8-1,0.7-2.4-0.2-3.3
			l-1.5-1.4c-1-1-2.7-1-3.6,0c-0.1,0.1-0.3,0.3-0.4,0.4l0,0c0,0-0.1,0.1-0.1,0.1c-0.3,0.4-0.6,0.7-0.6,0.7s0,0,0,0
			c-8.7,11.1-12.3,17.6-10,23.1c1.1,2.8,3.5,4.6,7.4,6.1c-3.9,1.4-6.2,3.3-7.4,6.1c-1.1,2.7-0.8,5.6,0.7,9.1
			c-3.5-1.6-6.4-1.9-9.1-0.7c-2.8,1.1-4.6,3.5-6.1,7.4c-1.4-3.9-3.3-6.2-6.1-7.4c-2.7-1.1-5.6-0.8-9.1,0.7c1.6-3.5,1.9-6.4,0.7-9.1
			c-1.1-2.8-3.5-4.6-7.4-6.1c3.9-1.4,6.2-3.3,7.4-6.1c1.1-2.7,0.8-5.6-0.7-9.1c3.5,1.6,6.4,1.9,9.1,0.7c2.7-1.1,4.6-3.5,6.1-7.4
			c1.4,3.9,3.3,6.2,6.1,7.4l0.3-0.7l-0.3,0.7c1.3,0.5,2.8-0.1,3.3-1.4l0.8-1.9c0.5-1.3-0.1-2.7-1.3-3.3l0,0.4
			C86.4,65.2,84.6,53,83.9,48h0c-0.2-1-1.2-2.6-2.5-2.6l-2,0.2c-1.3,0-2.3,1.4-2.5,2.4h0c-0.7,5-2.4,17.2-5.3,18.4
			c-2.8,1.2-13-6.9-16.8-9.9l0-0.1c-1-0.8-2.4-0.8-3.3,0.1L50,57.8c-0.9,0.9-1,2.2-0.2,3.2h0c3,4,11,14.2,9.9,17
			C58.5,80.8,45,82.8,41,83.4v0c-2,0.2-2.4,1.2-2.4,2.5l0.1,2c0,1.3,0.3,2.3,2.3,2.5v0c4,0.7,17.5,2.4,18.7,5.3
			c1.2,2.8-6.8,13-9.8,16.8l0,0c-0.8,1-0.7,2.4,0.2,3.3l1.4,1.4c0.9,0.9,2.3,1,3.3,0.2l0,0c3.8-3,14-10.2,16.8-9.1
			c2.8,1.2,4.6,15.5,5.3,19.5h0c0.2,1,1.2,1.6,2.5,1.6l2,0.3c1.3,0,2.3-0.9,2.5-1.9h0c0.7-4,2.4-18.3,5.3-19.5
			c2.8-1.2,13,6.4,16.8,9.4l0-0.2c1,0.8,2.4,0.6,3.3-0.3l1.4-1.5c0.9-0.9,1-2.4,0.2-3.4l0,0c-3-3.8-10.5-14-9.3-16.9
			c1.2-2.8,14.2-4.6,19.2-5.3v0c1-0.2,1.8-1.2,1.8-2.5l0.2-2C123,84.7,122,83.6,121,83.4z"/>
		<path fill="#FFFFFF" d="M111.1,55l1.4,1.4c1,1,2.6,1,3.6,0l0,0l3.8-3.8l0,0c1-1,1-2.6,0-3.6l-1.4-1.4c-1-1-2.6-1-3.6,0l0,0
			l-3.8,3.8l0,0C110.1,52.5,110.1,54,111.1,55z"/>
		<path fill="#FFFFFF" d="M21,83.4L21,83.4l-2,0v0c-1,0-2.3,1.1-2.3,2.5l-0.1,2c0,1.4,1.4,2.5,2.4,2.5v0l2,0v0c1,0,2.5-1.1,2.5-2.5
			l0-2C23.5,84.5,22,83.4,21,83.4z"/>
		<path fill="#FFFFFF" d="M34,83.4L34,83.4l-5,0v0c-2,0-2.9,1.1-2.9,2.5l0.2,2c0,1.4,0.7,2.5,2.7,2.5v0l5,0v0c1,0,2.2-1.1,2.2-2.5
			l0.2-2C36.4,84.5,35,83.4,34,83.4z"/>
		<path fill="#FFFFFF" d="M49.6,119.2l-1.4-1.4c-1-1-2.6-1-3.6,0l0,0l-3.6,3.6l0,0c-1,1-1,2.6,0,3.6l1.4,1.4c1,1,2.5,1,3.5,0v0
			l3.6-3.6l0,0C50.6,121.8,50.6,120.2,49.6,119.2z"/>
		<path fill="#FFFFFF" d="M117.3,118.8l-1.1-1.1l0,0c-1-1-2.6-1-3.6,0l-1.6,1.4c-1,1-1.1,2.6-0.1,3.6v0l1.2,1.1l0.1,0
			c1,1,2.6,1,3.6,0l1.5-1.4C118.3,121.4,118.3,119.8,117.3,118.8L117.3,118.8z"/>
	</g>
</g>
</svg>
