<?xml version="1.0" encoding="utf-8"?>
<!-- Generator: Adobe Illustrator 18.1.1, SVG Export Plug-In . SVG Version: 6.00 Build 0)  -->
<svg version="1.1" id="Laag_1" xmlns="http://www.w3.org/2000/svg" xmlns:xlink="http://www.w3.org/1999/xlink" x="0px" y="0px"
	 viewBox="0 0 141.6 153.1" enable-background="new 0 0 141.6 153.1" xml:space="preserve">
<g>
	<path fill="#ffffff" d="M107.7,69.1c0-22-17.4-39-38.7-39c0,0,0,0,0,0c0,0,0,0,0,0c-21.3,0-38.7,17-38.7,39h0
		c-0.2,3,0.3,12.7,11,30.6c0.1,0.1,0.1,0.2,0.2,0.3c0,0.1,3.9,5.8,6.5,13c0.1,0.6,0.3,2,0.3,3.6c0,1.4,0.6,2.4,1.5,3.4
		c1,1,2.3,1.2,3.7,1.2h6.6c0,0,0,0,0,0h3.6c2.1,0,3.4-1,3.4-3.1v-3c0-2-1.3-3.9-3.4-3.9h-3.6c0,0-0.1,0-0.1,0h-1.8
		c-0.1-1-0.1-0.6-0.1-0.7c0-0.2-0.1-0.4-0.2-0.6c-2.8-8.1-7-14.6-7.7-15.6c-9.4-15.8-9.5-23.4-9.4-24.3c0.1-0.3,0-0.3,0-0.7
		C40.8,53.6,53.5,41,69,40.9c15.6,0,28.2,12.7,28.2,28.2c0,0.4,0,0.4,0,0.7c0,0.9-0.1,8.6-9.4,24.4c-0.7,1.1-4.9,7.5-7.7,15.6
		c0,0.1-0.3,0.2-0.3,0.3c-0.2,0.6-1.8,5.7-1.8,10.6V137c0,1.1-0.2,1.1-1.3,1.1h-1.2c-2.8,0-5,2-5.2,5h-3.4c-0.2-3-2.5-5-5.2-5h-1.3
		c-0.4,0-2.3-0.1-2.3-3.3v-1.2l0,0v-1.1c0-1.9-1.1-4.4-3-4.4h-3.6c-1.9,0-3.4,2.5-3.4,4.4v2.5c0,0.1-0.1,0.2-0.1,0.3
		c0.2,7.3,4.1,11.4,8.1,13v0.4c0,2.9,2.7,4.3,5.6,4.3h13.9c2.9,0,5.5-1.4,5.5-4.3v-0.2c5-1.8,7.9-7.3,8.1-11.2
		c0-0.1-0.1-0.2-0.1-0.2v-16.3c0-3.1,0.9-6.9,1.1-7.7c2.6-7.3,6.5-13.1,6.5-13.2c0.1-0.1,0.1-0.2,0.2-0.3
		C107.4,81.8,107.9,72.1,107.7,69.1L107.7,69.1z"/>
	<path fill="#ffffff" d="M139.3,94.1l-20.1-9.5c-1.9-0.8-4.1,0.1-4.9,2l-1.2,2.8c-0.8,1.9,0.1,4.1,2,4.9l20.1,9.5
		c1.9,0.8,4.1-0.1,4.9-2l1.2-2.8C142.1,97.1,141.2,94.9,139.3,94.1z"/>
	<path fill="#ffffff" d="M24.2,45L6.3,37.8c-1.9-0.8-4.1,0.1-4.9,2l-1.2,2.8c-0.8,1.9,0.1,4.1,2,4.9l17.9,7.2c1.9,0.8,4.1-0.1,4.9-2
		l1.2-2.8C27,48,26.1,45.8,24.2,45z"/>
	<path fill="#ffffff" d="M45.3,24c0.8,1.9,3,2.8,4.9,2l2.8-1.1c1.9-0.8,2.8-3,2-4.9L50.2,8.5c-0.8-1.9-3-2.8-4.9-2l-2.8,1.1
		c-1.9,0.8-2.8,3-2,4.9L45.3,24z"/>
	<path fill="#ffffff" d="M114.4,52.8c0.8,1.9,3,2.8,4.9,2l6.3-2.4c1.9-0.8,2.8-3,2-4.9l-1.1-2.8c-0.8-1.9-3-2.8-4.9-2l-6.3,2.4
		c-1.9,0.8-2.8,3-2,4.9L114.4,52.8z"/>
	<path fill="#ffffff" d="M25,86.4c-0.8-1.9-3-2.8-4.9-2l-4.6,2.2c-1.9,0.8-2.8,3-2,4.9l1.1,2.8c0.8,1.9,3,2.8,4.9,2l4.6-2.2
		c1.9-0.8,2.8-3,2-4.9L25,86.4z"/>
	<path fill="#ffffff" d="M86.7,25l2.8,1.2c1.9,0.8,4.1-0.1,4.9-2l7.2-17.8c0.8-1.9-0.1-4.1-2-4.9l-2.8-1.2c-1.9-0.8-4.1,0.1-4.9,2
		l-7.2,17.8C83.9,22,84.8,24.2,86.7,25z"/>
</g>
</svg>
