<?xml version="1.0" encoding="utf-8"?>
<!-- Generator: Adobe Illustrator 18.1.1, SVG Export Plug-In . SVG Version: 6.00 Build 0)  -->
<svg version="1.1" id="Laag_1" xmlns="http://www.w3.org/2000/svg" xmlns:xlink="http://www.w3.org/1999/xlink" x="0px" y="0px"
	 viewBox="0 0 147.8 147.8" enable-background="new 0 0 147.8 147.8" xml:space="preserve">
<g>
	<path fill="#ffffff" d="M46.7,124l-2.6-1.2c-1.7-0.8-3.7-0.1-4.6,1.5l-0.1,0l-4.8,10.3l0,0c-0.8,1.8-0.1,3.9,1.7,4.8l2.6,0.8
		c1.8,0.8,4-0.1,4.8-2.1h0v0.8V138h0l4.7-9.6l0,0.5c0-0.1,0,0.1,0.1,0.1h0l0-0.2C49.1,127,48.4,124.8,46.7,124z"/>
	<path fill="#ffffff" d="M14.6,113.3L14.6,113.3c1.8-0.8,2.6-3,1.8-4.8l-1.2-2.6c-0.8-1.8-3-2.6-4.8-1.8L14,112l-3.7-7.9l-6.5,3.1
		l0,0c-1.8,0.8-2.6,3-1.8,4.8l1.2,2.6c0.8,1.8,3,2.6,4.8,1.8l0,0L14.6,113.3z"/>
	<path fill="#ffffff" d="M21.3,98.5L21.3,98.5c-1.4,0.6-2.2,2-2.1,3.5c0,0.5,0.1,1,0.3,1.5l1.2,2.6c0.8,1.8,3,2.6,4.8,1.8l-0.1-0.1
		c0,0,0,0,0,0l0,0l2.7-1.4l0,0c1.8-0.8,2.6-3,1.8-4.8l-1.2-2.6c-0.8-1.8-3-2.6-4.8-1.8l3.7,7.9L24,97.2L21.3,98.5z"/>
	<path fill="#ffffff" d="M22.7,127.8l-2-2.1c-1.4-1.4-3.7-1.4-5.1,0l0,0l-3.1,3l0,0c-1.4,1.4-1.4,3.7,0,5.1l2,2.1
		c1.4,1.4,3.7,1.4,5.1,0l0,0l0,0l3.1-3l0,0C24.1,131.4,24.1,129.1,22.7,127.8z"/>
	<path fill="#ffffff" d="M51.5,98.9l-2-2.1c-1.4-1.4-3.7-1.4-5.1,0l0,0l-20.7,20.5l0,0c-1.4,1.4-1.4,3.7,0,5.1l2,2.1
		c1.4,1.4,3.7,1.4,5.1,0l0,0l0,0L51.6,104l0,0C52.9,102.6,52.9,100.3,51.5,98.9z"/>
	<path fill="#ffffff" d="M146.3,1.5c-1-1-2.4-1.6-3.9-1.5c-1.7,0.1-41.4,2.6-68,29.2C60.2,43.5,52.8,61.8,49.1,75.8l-31.9-0.5
		L36.3,56h12.4v0.4c2-0.3,2.9-1.8,2.9-3.5l0-2.9c0-1.8-0.9-3.2-2.9-3.5V46H34.2c-1.3,0-2.6,0.7-3.6,1.7L1.5,76.8
		c-1.4,1.4-1.9,3.7-1.1,5.5C1.2,84.3,3,85.1,5,85.1L53,85c0,0,0,0,0,0c2.4,0,4.4-1.2,4.9-3.4c3.1-13.1,9.6-31.4,23.7-45.5
		c9.1-9.1,20.1-14.9,30.3-18.8l18.5,18.5c-3.9,10.2-9.9,21.3-18.9,30.3c-14,14-32.6,20.6-45.7,23.7c-2.3,0.5-3.9,2.6-3.9,5l0.4,48
		c0,2,1.3,3.9,3.1,4.7c0.6,0.3,1.3,0.4,1.9,0.4c1.3,0,2.6-0.5,3.6-1.5l29.2-29.1c0.9-1,1.6-2.2,1.6-3.6V99h-0.3
		c-0.3-2-1.8-2.8-3.5-2.8L95,96.1c-1.8,0-3.2,0.9-3.5,2.9h0.3v12.6l-19.2,19.1l-0.3-31.9c14-3.7,32.2-11.1,46.6-25.4
		c26.6-26.6,29-66.3,29.1-68C147.9,3.9,147.4,2.5,146.3,1.5z M122.7,13.9c5.7-1.6,10.6-2.5,14.2-3c-0.5,3.6-1.5,8.6-3,14.2
		L122.7,13.9z"/>
</g>
</svg>
