<?xml version="1.0" encoding="utf-8"?>
<!-- Generator: Adobe Illustrator 18.1.1, SVG Export Plug-In . SVG Version: 6.00 Build 0)  -->
<svg version="1.1" id="Laag_1" xmlns="http://www.w3.org/2000/svg" xmlns:xlink="http://www.w3.org/1999/xlink" x="0px" y="0px"
	 viewBox="0 0 153.4 59.6" enable-background="new 0 0 153.4 59.6" xml:space="preserve">
<g>
	<g enable-background="new    ">
		<g>
			<g>
				<g enable-background="new    ">
					<g>
						<g>
							<g>
								<path fill="#FFFFFF" d="M105.4,16.4c2,0,3.7-1.7,3.7-3.7c0-2-1.7-3.7-3.7-3.7c-2,0-3.7,1.7-3.7,3.7
									C101.7,14.8,103.3,16.4,105.4,16.4 M135.8,20.1l-3.9,0c-0.7,0-1.2,0.5-1.2,1.2l0,12.9c0,2.7-1.9,4.5-4.6,4.5
									c-4.1,0-4.8-3.4-4.8-3.4c-0.1-0.6-0.2-1.7-0.3-2.4l-0.1-3.7c0-0.1,0-0.1,0-0.2c0-0.1,0-0.2,0-0.3l0.1,1.1
									c0-1.3-0.1-4.4-1.2-6.6c-0.7-1-1.7-2-3.1-2.7c-1.3-0.7-2.9-1-4.6-1c-0.1,0-0.3,0-0.5,0c-1,0-3.1,0.1-5.3,1.5
									c-1.1,0.7-2.2,1.8-3,3.2c-0.8,1.4-1.1,3.2-1.1,5.1c0,0.1,0,0.2,0,1.3l0,13.1c0,0.7,0.5,1.2,1.2,1.2l3.9,0
									c0.7,0,1.2-0.5,1.2-1.2l0-12.3l0-1.9c0-0.1,0-0.1,0-0.2c0-1.1,0.2-1.7,0.4-2.1l-0.3,0.6c1-3.6,5.6-2.7,5.9-0.5
									c0,0,0.3,0.3,0.5,2.3l0.3,5.8c0.1,5.5,3.7,9.6,10.6,9.6c6.7,0,11-4.7,11-11l0-12.7C137,20.6,136.5,20.1,135.8,20.1 M63,19.9
									c-6.7,0-10.7,4.7-10.7,11l0.1,2.5l0,2.9l0,0.1c0,0.2,0,0.4,0,0.5c0,1.9-0.8,2.2-1.7,2.4c-0.9,0.2-11.4,0.3-14.6,0.2v0
									c-3.5,0-6.3-3.1-6.4-7.1c0-4,2.8-7.1,6.3-7.2c2.8,0,5.4,1.9,6.3,4.6l-6.7,0c-0.7,0-1.2,0.5-1.2,1.2l0,2.8
									c0,0.7,0.5,1.2,1.2,1.2l11.2,0c0,0,1.4,0,1.5-1.3c0.3-8.8-5.5-14.1-12.3-14.1c-6.9,0-12.4,5.8-12.4,12.8
									c0,6.9,5.6,12.6,12.5,12.6c0.6,0,16.1,0.7,18.3-1.1c1-0.5,2-1.4,2.8-2.6c0.8-1.2,1.1-2.7,1.1-4.4l0,0.3c0-0.3,0-0.8,0-1.1
									v-2.4c0-0.1,0-0.1,0-0.2l0-2.8c0-2.8,2-4.7,4.7-4.7c4.1,0,4.5,3.5,4.5,3.5c0.1,0.7,0.1,1.7,0.1,2.4l0,11.9
									c0,0.7,0.5,1.2,1.2,1.2l3.9,0c0.7,0,1.2-0.5,1.2-1.2l0-13C73.9,24.4,69.9,19.9,63,19.9 M99.5,20.2l-4.4,0
									c-0.7,0-1.4,0.5-1.6,1.1l-5.2,14.8l-5.6-14.7c-0.2-0.6-1-1.1-1.6-1.1l-4.4,0c-0.7,0-1,0.5-0.8,1.1l8.9,22.4
									c0.1,0.2,0.1,0.4,0.2,0.5c0.1,0.1,0.2,0.3,0.3,0.4c0,0,0.1,0.1,0.1,0.1c0.2,0.1,0.4,0.2,0.8,0.2l0.3,0l3.5,0
									c0.7,0,1.4-0.5,1.6-1.1l8.6-22.6C100.5,20.7,100.1,20.2,99.5,20.2"/>
							</g>
						</g>
					</g>
				</g>
			</g>
		</g>
	</g>
</g>
</svg>
