<?xml version="1.0" encoding="utf-8"?>
<!-- Generator: Adobe Illustrator 18.1.1, SVG Export Plug-In . SVG Version: 6.00 Build 0)  -->
<svg version="1.1" id="Laag_1" xmlns="http://www.w3.org/2000/svg" xmlns:xlink="http://www.w3.org/1999/xlink" x="0px" y="0px"
	 viewBox="0 0 107.1 147.6" enable-background="new 0 0 107.1 147.6" xml:space="preserve">
<g>
	<path fill="#ffffff" d="M106.1,50.5l-4.8-6.5l2-7.8c0.5-2.2-0.4-4.4-2.3-5.6L94,26.5l-1.2-8c-0.3-2.2-2.1-3.9-4.3-4.3l-8-1.2
		l-4.1-6.9c-1.1-1.9-3.4-2.9-5.6-2.3l-7.8,2L56.6,1c-1.8-1.3-4.2-1.3-6,0L44,5.8l-7.8-2c-2.2-0.5-4.4,0.4-5.6,2.3l-4.1,6.9l-8,1.2
		c-2.2,0.3-3.9,2.1-4.3,4.3l-1.2,8l-6.9,4.1c-1.9,1.1-2.9,3.4-2.3,5.6l2,7.8L1,50.5c-1.3,1.8-1.3,4.2,0,6L5.8,63l-2,7.8
		c-0.5,2.2,0.4,4.4,2.3,5.6l6.9,4.1l1.2,8c0.3,2.2,2.1,3.9,4.3,4.3l8,1.2l4.1,6.9c1.1,1.9,3.4,2.9,5.6,2.3l7.8-2l6.5,4.8
		c1.8,1.3,4.2,1.3,6,0l8.4-6.2l0,0c1.5-1.2,1.8-3.4,0.6-5l-1.7-2.3c-1.1-1.5-3.3-1.9-4.9-0.8l0,0l-5.4,4l-5.4-4
		c-1.2-0.9-2.8-1.2-4.2-0.8l-6.5,1.6L34,86.7c-0.8-1.3-2.1-2.2-3.6-2.4l-6.6-1l-1-6.6c-0.2-1.5-1.1-2.8-2.4-3.6l-5.7-3.4l1.6-6.5
		c0.4-1.5,0.1-3-0.8-4.3l-4-5.4l4-5.4c0.9-1.2,1.2-2.8,0.8-4.3l-1.6-6.5l5.7-3.4c1.3-0.8,2.2-2.1,2.4-3.6l1-6.6l6.6-1
		c1.5-0.2,2.8-1.1,3.6-2.4l3.4-5.7l6.5,1.6c1.5,0.4,3,0.1,4.2-0.8l5.4-4l5.4,4c1.2,0.9,2.8,1.2,4.2,0.8l6.5-1.6l3.4,5.7
		c0.8,1.3,2.1,2.2,3.6,2.4l6.6,1l1,6.6c0.2,1.5,1.1,2.8,2.4,3.6l5.7,3.4l-1.6,6.5c-0.4,1.5-0.1,3,0.8,4.2l4,5.4l-4,5.4
		c-0.9,1.2-1.2,2.8-0.8,4.3l1.6,6.5l-5.8,3.4c-1.3,0.8-2.2,2.1-2.4,3.6l-1,6.6l-6.7,1c-2.5,0.4-4.3,2.5-4.3,5v44.4l-16.2-9.5
		c-1.6-0.9-3.5-0.9-5.1,0l-16.8,9.3l0-23.5h0c0-2-1.6-3.3-3.6-3.3l-2.9-0.1c-2,0-3.6,1.5-3.6,3.5h0l0,32.2c0,1.8,1,3.6,2.5,4.5
		c0.8,0.5,1.7,0.7,2.5,0.7c0.9,0,1.7-0.2,2.5-0.6l21.8-12.4l21.3,12.4c1.6,0.9,3.4,0.9,5,0c1.6-0.9,2.5-2.6,2.5-4.4V93.7l6.1-0.9
		c2.2-0.3,4-2.1,4.3-4.3l1.2-8l6.9-4.1c1.9-1.1,2.9-3.4,2.3-5.6l-2-7.8l4.8-6.5C107.4,54.8,107.4,52.3,106.1,50.5z"/>
</g>
</svg>
