<?xml version="1.0" encoding="utf-8"?>
<!-- Generator: Adobe Illustrator 18.1.1, SVG Export Plug-In . SVG Version: 6.00 Build 0)  -->
<svg version="1.1" id="Laag_1" xmlns="http://www.w3.org/2000/svg" xmlns:xlink="http://www.w3.org/1999/xlink" x="0px" y="0px"
	 viewBox="0 0 448.7 148" enable-background="new 0 0 448.7 148" xml:space="preserve">
<g>
	<g>
		<path fill="#3B72B4" d="M448.7,144c0,2.2-1.8,4-4,4H4c-2.2,0-4-1.8-4-4V4c0-2.2,1.8-4,4-4h440.7c2.2,0,4,1.8,4,4V144z"/>
	</g>
	<text transform="matrix(1 0 0 1 140.7944 84.347)"><tspan x="0" y="0" fill="#FFFFFF" font-family="'Chalet-NewYorkNineteenSixty'" font-size="34.7137">9,000,000 </tspan><tspan x="0" y="26.2" fill="#FFFFFF" font-family="'Chalet-NewYorkNineteenSixty'" font-size="21.8696">euro start-up capital raised</tspan></text>
	<text transform="matrix(1 0 0 1 17.0385 28.7381)" fill="#FCEB3D" font-family="'Chalet-NewYorkNineteenSixty'" font-size="18">Result</text>
	<g>
		<path fill="#FFFFFF" d="M117,83.4L117,83.4c-5-0.7-18-2.5-19.2-5.3c-1.2-2.8,6.5-13,9.5-16.8l-0.1,0c0.8-1,0.7-2.4-0.2-3.3
			l-1.5-1.4c-1-1-2.7-1-3.6,0c-0.1,0.1-0.3,0.3-0.4,0.4l0,0c0,0-0.1,0.1-0.1,0.1c-0.3,0.4-0.6,0.7-0.6,0.7s0,0,0,0
			c-8.7,11.1-12.3,17.6-10,23.1c1.1,2.8,3.5,4.6,7.4,6.1c-3.9,1.4-6.2,3.3-7.4,6.1c-1.1,2.7-0.8,5.6,0.7,9.1
			c-3.5-1.6-6.4-1.9-9.1-0.7c-2.8,1.1-4.6,3.5-6.1,7.4c-1.4-3.9-3.3-6.2-6.1-7.4c-2.7-1.1-5.6-0.8-9.1,0.7c1.6-3.5,1.9-6.4,0.7-9.1
			c-1.1-2.8-3.5-4.6-7.4-6.1c3.9-1.4,6.2-3.3,7.4-6.1c1.1-2.7,0.8-5.6-0.7-9.1c3.5,1.6,6.4,1.9,9.1,0.7c2.7-1.1,4.6-3.5,6.1-7.4
			c1.4,3.9,3.3,6.2,6.1,7.4l0.3-0.7l-0.3,0.7c1.3,0.5,2.8-0.1,3.3-1.4l0.8-1.9c0.5-1.3-0.1-2.7-1.3-3.3l0,0.1
			c-2.8-1.2-4.6-13.7-5.3-18.7h0c-0.2-1-1.2-2.3-2.5-2.3l-2,0.1c-1.3,0-2.3,1.3-2.5,2.3h0c-0.7,5-2.4,17.5-5.3,18.7
			c-2.8,1.2-13-6.8-16.8-9.8l0,0c-1-0.8-2.4-0.7-3.3,0.2l-1.4,1c-0.9,0.9-1,1.9-0.2,2.9h0c3,4,11,14.5,9.8,17.3
			c-1.2,2.8-14.7,5-18.7,5.7v0c-2,0.2-2.3,1.2-2.3,2.5l0.1,2c0,1.3,0.3,2.3,2.3,2.5v0c4,0.7,17.5,2.4,18.7,5.3
			c1.2,2.8-6.8,13-9.7,16.8l0,0c-0.8,1-0.7,2.4,0.2,3.3l1.4,1.4c0.9,0.9,2.3,1,3.3,0.2l0,0c3.8-3,14-10.5,16.8-9.3
			c2.8,1.2,4.6,15.2,5.3,19.2h0c0.2,1,1.2,1.8,2.5,1.8l2,0.2c1.3,0,2.3-1,2.5-2h0c0.7-4,2.4-18,5.3-19.2c2.8-1.2,13,6.5,16.8,9.5
			l0-0.1c1,0.8,2.4,0.7,3.3-0.2l1.4-1.5c0.9-0.9,1-2.4,0.2-3.3l0,0c-3-3.8-10.5-14-9.3-16.8c1.2-2.8,14.2-4.6,19.2-5.3v0
			c1-0.2,1.9-1.2,1.9-2.5l0.2-2C119.1,84.6,118,83.6,117,83.4z"/>
		<path fill="#FFFFFF" d="M107.2,55l1.4,1.4c1,1,2.6,1,3.6,0l0,0l3.8-3.8l0,0c1-1,1-2.6,0-3.6l-1.4-1.4c-1-1-2.6-1-3.6,0l0,0
			l-3.8,3.8l0,0C106.3,52.4,106.3,54,107.2,55z"/>
		<path fill="#FFFFFF" d="M17,83.3L17,83.3l-2,0v0c-1,0-2.2,1.1-2.2,2.5l-0.2,2c0,1.4,1.4,2.5,2.4,2.5v0l2,0v0c1,0,2.6-1.1,2.6-2.5
			l0-2C19.6,84.5,18,83.3,17,83.3z"/>
		<path fill="#FFFFFF" d="M30,83.3L30,83.3l-5,0v0c-2,0-2.8,1.1-2.8,2.5l0.2,2c0,1.4,0.7,2.5,2.7,2.5v0l5,0v0c1,0,2.2-1.1,2.2-2.5
			l0.1-2C32.4,84.5,31,83.3,30,83.3z"/>
		<path fill="#FFFFFF" d="M45.8,119.1l-1.4-1.4c-1-1-2.6-1-3.6,0l0,0l-3.6,3.6l0,0c-1,1-1,2.6,0,3.6l1.4,1.4c1,1,2.5,1,3.5,0v0
			l3.7-3.6l0,0C46.7,121.7,46.8,120.1,45.8,119.1z"/>
		<path fill="#FFFFFF" d="M113.5,118.8l-1.1-1.1l0,0c-1-1-2.6-1-3.6,0l-1.6,1.4c-1,1-1.2,2.6-0.2,3.6v0l1.3,1.1l0.1,0
			c1,1,2.6,1,3.6,0l1.5-1.4C114.5,121.4,114.5,119.8,113.5,118.8L113.5,118.8z"/>
	</g>
</g>
</svg>
